<?xml version="1.0" encoding="UTF-8" standalone="no"?>
<!-- Generator: Adobe Illustrator 16.2.1, SVG Export Plug-In . SVG Version: 6.00 Build 0)  -->

<svg
   xmlns:dc="http://purl.org/dc/elements/1.1/"
   xmlns:cc="http://creativecommons.org/ns#"
   xmlns:rdf="http://www.w3.org/1999/02/22-rdf-syntax-ns#"
   xmlns:svg="http://www.w3.org/2000/svg"
   xmlns="http://www.w3.org/2000/svg"
   xmlns:sodipodi="http://sodipodi.sourceforge.net/DTD/sodipodi-0.dtd"
   xmlns:inkscape="http://www.inkscape.org/namespaces/inkscape"
   version="1.1"
   id="Layer_1"
   x="0px"
   y="0px"
   width="512px"
   height="512px"
   viewBox="0 0 512 512"
   enable-background="new 0 0 512 512"
   xml:space="preserve"
   inkscape:version="0.48.4 r9939"
   sodipodi:docname="edit.svg"><metadata
   id="metadata15"><rdf:RDF><cc:Work
       rdf:about=""><dc:format>image/svg+xml</dc:format><dc:type
         rdf:resource="http://purl.org/dc/dcmitype/StillImage" /></cc:Work></rdf:RDF></metadata><defs
   id="defs13" /><sodipodi:namedview
   pagecolor="#ffffff"
   bordercolor="#666666"
   borderopacity="1"
   objecttolerance="10"
   gridtolerance="10"
   guidetolerance="10"
   inkscape:pageopacity="0"
   inkscape:pageshadow="2"
   inkscape:window-width="1920"
   inkscape:window-height="1138"
   id="namedview11"
   showgrid="false"
   showguides="true"
   inkscape:guide-bbox="true"
   inkscape:zoom="0.65186406"
   inkscape:cx="-143.38661"
   inkscape:cy="517.26898"
   inkscape:window-x="-8"
   inkscape:window-y="-8"
   inkscape:window-maximized="1"
   inkscape:current-layer="Layer_1" />
<g
   id="g3">
	<path
   fill-rule="evenodd"
   clip-rule="evenodd"
   d="M256,0C114.609,0,0,114.609,0,256s114.609,256,256,256s256-114.609,256-256   S397.391,0,256,0z M256,472c-119.297,0-216-96.703-216-216S136.703,40,256,40s216,96.703,216,216S375.297,472,256,472z"
   id="path5" />
	
	
</g>
<g
   style="fill:#000000"
   id="g2994"
   transform="matrix(0.58021011,0,0,0.58021011,111.35361,97.442561)"><path
     id="path2986"
     d="m 424,168 -216,216 -80,0 0,-80 216,-216 z m 27,-27 -80,-80 28.029,-28.029 c 9.334,-9.334 24.607,-9.334 33.941,0 l 46.059,46.059 c 9.334,9.334 9.334,24.607 0,33.941 L 451,141 z M 384,281.791 384,448 64,448 64,128 240,128 304,64 48,64 C 21.6,64 0,85.6 0,112 l 0,352 c 0,26.4 21.6,48 48,48 l 352,0 c 26.4,0 48,-21.6 48,-48 l 0,-239.681 -64,57.472 z"
     inkscape:connector-curvature="0" /></g></svg>